<svg viewBox="0 0 192 192" fill="none" xmlns="http://www.w3.org/2000/svg">
<rect x="18" y="18" width="156" height="156" rx="20" fill="#006FEE"/>
<path d="M65.5227 123H45.375V70.6364H65.3182C70.7045 70.6364 75.358 71.6847 79.2784 73.7812C83.2159 75.8608 86.25 78.8608 88.3807 82.7812C90.5284 86.6847 91.6023 91.3636 91.6023 96.8182C91.6023 102.273 90.5369 106.96 88.4062 110.881C86.2756 114.784 83.2585 117.784 79.3551 119.881C75.4517 121.96 70.8409 123 65.5227 123ZM59.5909 110.932H65.0114C67.6023 110.932 69.8097 110.514 71.6335 109.679C73.4744 108.844 74.8722 107.403 75.8267 105.358C76.7983 103.312 77.2841 100.466 77.2841 96.8182C77.2841 93.1705 76.7898 90.3239 75.8011 88.2784C74.8295 86.233 73.3977 84.7926 71.5057 83.9574C69.6307 83.1222 67.3295 82.7045 64.6023 82.7045H59.5909V110.932ZM108.477 123H93.1364L110.42 70.6364H129.852L147.136 123H131.795L120.341 85.0568H119.932L108.477 123ZM105.614 102.341H134.455V112.977H105.614V102.341Z" fill="white"/>
</svg>
